<?xml version="1.0" encoding="utf-8"?>
<!-- Generator: Adobe Illustrator 21.0.0, SVG Export Plug-In . SVG Version: 6.00 Build 0)  -->
<svg version="1.1" id="Layer_1" xmlns="http://www.w3.org/2000/svg" xmlns:xlink="http://www.w3.org/1999/xlink" x="0px" y="0px"
	 viewBox="0 0 350 470" style="enable-background:new 0 0 350 470;" xml:space="preserve">
<style type="text/css">
	.st0{clip-path:url(#SVGID_2_);fill:#FFD23F;}
</style>
<g>
	<defs>
		<rect id="SVGID_1_" x="3.3" y="1.4" width="343.3" height="467.2"/>
	</defs>
	<clipPath id="SVGID_2_">
		<use xlink:href="#SVGID_1_"  style="overflow:visible;"/>
	</clipPath>
	<path class="st0" d="M260.8,303.9c0,42.2-36.6,79.5-97.8,79.5c-34.5,0-68.9-23.2-87.2-57c-6.3,3.5-66.1,41.5-72.5,45
		C35.7,429.9,99,468.6,163,468.6c111.2,0,183.6-67.5,183.6-164.6c0-99.9-68.9-153.4-152.7-153.4c-29.6,0-66.1,8.4-85.1,24.6
		L125,80.9h192.8V1.4H56.1L17.4,241.3l49.2,29.5c33.8-36.6,73.9-46.4,105.5-46.4C221.4,224.4,260.8,250.5,260.8,303.9"/>
</g>
</svg>
