<svg id="Layer_1" data-name="Layer 1" xmlns="http://www.w3.org/2000/svg" viewBox="0 0 122.1 116.16"><defs><style>.cls-1{fill:#3bcec0;}</style></defs><title>ico_dots</title><path class="cls-1" d="M440.39,341.3a20.88,20.88,0,0,0,19.85,14.42,20.9,20.9,0,1,0-5-41.22,43.54,43.54,0,0,1-30.6-4.35L405.56,299.9a9.12,9.12,0,0,1-4.81-8v-.12a12.71,12.71,0,0,1,6-10.8l22.47-14a42,42,0,0,1,18.57-6.51l.74-.09A10.44,10.44,0,1,0,438,244.5a43.18,43.18,0,0,1-13.46,13.2l-14.84,9.6a34.16,34.16,0,0,1-25.42,4.08,20.92,20.92,0,0,0-4.73-.47c-10.47.15-20,9.29-20.56,19.75a20.9,20.9,0,0,0,28.09,20.76,25.7,25.7,0,0,1,24.2,3.31l21.23,12.11C437.19,330.12,438.56,335.88,440.39,341.3Z" transform="translate(-358.95 -239.56)"/></svg>