<svg id="Layer_1" data-name="Layer 1" xmlns="http://www.w3.org/2000/svg" viewBox="0 0 115.5 115.5"><defs><style>.cls-1{fill:#3bcec0;}</style></defs><title>ico_cog</title><path class="cls-1" d="M469.64,287.64h0a9.14,9.14,0,0,1-8.49-5.77q-.27-.67-.56-1.34a9.16,9.16,0,0,1,1.88-10.18h0a9.14,9.14,0,0,0,0-12.93l-1.21-1.21a9.14,9.14,0,0,0-12.93,0l-.2.2A9.2,9.2,0,0,1,438,258.33l-.66-.27a9.2,9.2,0,0,1-5.84-8.52V249a9.14,9.14,0,0,0-9.14-9.14h-1.71a9.14,9.14,0,0,0-9.14,9.14v.5A9.18,9.18,0,0,1,405.7,258l-.86.35a9.19,9.19,0,0,1-10.11-1.91l-.64-.64a9.14,9.14,0,0,0-12.93,0l-1.21,1.21a9.14,9.14,0,0,0,0,12.93l.56.56a9.17,9.17,0,0,1,1.9,10.15q-.24.57-.47,1.14a9.16,9.16,0,0,1-8.5,5.79h-1a9.14,9.14,0,0,0-9.14,9.14v1.71a9.14,9.14,0,0,0,9.14,9.14h1a9.2,9.2,0,0,1,8.52,5.84l.27.66a9.2,9.2,0,0,1-1.92,10.09l-.7.7a9.14,9.14,0,0,0,0,12.93l1.21,1.21a9.14,9.14,0,0,0,12.93,0l.51-.51a9.16,9.16,0,0,1,10.18-1.88l1.34.56a9.14,9.14,0,0,1,5.77,8.49v.51a9.14,9.14,0,0,0,9.14,9.14h1.71a9.14,9.14,0,0,0,9.14-9.14v-.5a9.16,9.16,0,0,1,5.79-8.5l1.14-.47a9.18,9.18,0,0,1,10.15,1.9l.07.07a9.14,9.14,0,0,0,12.93,0l1.21-1.21a9.14,9.14,0,0,0,0-12.93l-.14-.14a9.19,9.19,0,0,1-1.91-10.11l.35-.86a9.18,9.18,0,0,1,8.51-5.83,9.14,9.14,0,0,0,9.14-9.14v-1.71A9.14,9.14,0,0,0,469.64,287.64ZM421,310.83a13.19,13.19,0,1,1,13.19-13.19A13.19,13.19,0,0,1,421,310.83Z" transform="translate(-363.28 -239.89)"/></svg>