<?xml version="1.0" encoding="utf-8"?>
<!-- Generator: Adobe Illustrator 21.0.0, SVG Export Plug-In . SVG Version: 6.00 Build 0)  -->
<svg version="1.1" id="Layer_1" xmlns="http://www.w3.org/2000/svg" xmlns:xlink="http://www.w3.org/1999/xlink" x="0px" y="0px"
	 width="580px" height="108.3px" viewBox="0 0 580 108.3" style="enable-background:new 0 0 580 108.3;" xml:space="preserve">
<title>logo_01</title>
<polygon points="22.4,64.5 54.9,64.5 54.9,44.3 22.4,44.3 22.4,21.4 59.9,21.4 59.9,1.2 0,1.2 0,106.8 60.8,106.8 60.8,86.6 
	22.4,86.6 "/>
<polygon points="158.3,1.2 132.6,64.7 107,1.2 89.2,1.2 78.2,106.8 100.7,106.8 106.4,47.5 124.8,94.7 140.5,94.7 158.9,47.5 
	164.6,106.8 187,106.8 176.1,1.2 "/>
<path d="M397.2,36c0-17.2-8.9-34.8-30.8-34.8h-37.6v105.6h22.4V71h4.6l19.8,35.9h24.1l-22.4-39.1C391.8,64.2,397.2,50.3,397.2,36z
	 M362.1,50.7h-10.9V21.5h10.9c10.6,0,12.7,8.1,12.7,14.6C374.8,42.8,372.6,50.7,362.1,50.7L362.1,50.7z"/>
<path d="M455.1,67.9h21.2c-0.3,10.6-7.5,20.2-17.6,20.2c-13,0-23.5-12.6-23.5-33.9c0-21.1,9.7-34,22.7-34c6.6,0,13.5,3.5,17.8,10.7
	l16.7-13.8C484.2,5.5,471,0,457.8,0c-26.2,0-45,20.5-45,54.3c0,33.9,19.6,54.1,45.8,54.1c27.4,0,41.5-22.1,41.5-59.3h-45.1V67.9z"/>
<polygon points="541.5,86.6 541.5,64.5 574,64.5 574,44.3 541.5,44.3 541.5,21.4 579.1,21.4 579.1,1.2 519.2,1.2 519.2,106.8 
	580,106.8 580,86.6 "/>
<polygon points="293.2,1.2 222.6,1.2 204.9,18.9 222.6,36.5 204.9,54.2 222.6,71.8 204.9,89.5 222.6,107.1 293.2,107.1 310.8,89.5 
	293.2,71.8 310.8,54.2 293.2,36.5 310.8,18.9 "/>
</svg>
