<?xml version="1.0" encoding="utf-8"?>
<!-- Generator: Adobe Illustrator 21.0.0, SVG Export Plug-In . SVG Version: 6.00 Build 0)  -->
<svg version="1.1" id="Layer_1" xmlns="http://www.w3.org/2000/svg" xmlns:xlink="http://www.w3.org/1999/xlink" x="0px" y="0px"
	 viewBox="0 0 350 484" style="enable-background:new 0 0 350 484;" xml:space="preserve">
<style type="text/css">
	.st0{clip-path:url(#SVGID_2_);fill:#0EAD69;}
</style>
<g>
	<defs>
		<rect id="SVGID_1_" x="14.6" y="4" width="320.8" height="476"/>
	</defs>
	<clipPath id="SVGID_2_">
		<use xlink:href="#SVGID_1_"  style="overflow:visible;"/>
	</clipPath>
	<path class="st0" d="M170.2,268.3c62.7-2.1,71.8,47.2,71.8,59.1c0,40.1-33.8,68.3-77.4,68.3c-31.7,0-61.3-23.9-74.6-51.4
		c-6.3,3.5-69,34.5-75.3,38c24.6,53.5,79.6,92.9,142.9,97.2c89.4,6.3,169-47.2,177.4-131c4.9-49.3-28.2-107-76.7-125.3
		c33.1-19,57-52.1,57-90.1C315.2,64.8,261,8.5,182.2,4.3C122.3,0.8,68.8,28.9,42.7,72.6l67.6,44.4c18.3-23.2,44.4-31.7,71.1-28.2
		c33.1,6.3,40.8,35.2,40.8,52.1c0,12-8.4,51.4-52.1,50.7h-49.3v76.7H170.2z"/>
</g>
</svg>
