<svg id="Layer_1" data-name="Layer 1" xmlns="http://www.w3.org/2000/svg" xmlns:xlink="http://www.w3.org/1999/xlink" viewBox="0 0 118.14 79.88">
  <defs>
    <style>
      .cls-1 {
        fill: none;
      }

      .cls-2 {
        clip-path: url(#clip-path);
      }

      .cls-3 {
        fill: #fff;
      }
    </style>
    <clipPath id="clip-path" transform="translate(-40.83 -60.06)">
      <rect class="cls-1" x="4.42" y="4.42" width="191.16" height="191.16"/>
    </clipPath>
  </defs>
  <title>mail</title>
  <g class="cls-2">
    <path class="cls-3" d="M140,118.13a3.72,3.72,0,0,1,.28,5.38,4,4,0,0,1-5.57.27L114.6,106.18l-6,5.71a12.82,12.82,0,0,1-17.54,0l-6-5.71-20,17.59a4,4,0,0,1-5.57-.27,3.72,3.72,0,0,1,.28-5.38l19.69-17.29-19.81-19a3.71,3.71,0,0,1-.13-5.38,4,4,0,0,1,2.47-1.16,4,4,0,0,1,3.2,1.13l31.38,30.07c1.44,1.38,4.95,1.39,6.4,0L134.54,76.4a4,4,0,0,1,5.57-.08,3.71,3.71,0,0,1,.08,5.38l-.12.11-19.87,19Zm7.2-58.07H52.64A11.59,11.59,0,0,0,40.83,71.47v57.05a11.59,11.59,0,0,0,11.81,11.41h94.51A11.59,11.59,0,0,0,159,128.53V71.47a11.59,11.59,0,0,0-11.81-11.41" transform="translate(-40.83 -60.06)"/>
  </g>
</svg>
