<?xml version="1.0" encoding="utf-8"?>
<!-- Generator: Adobe Illustrator 21.0.0, SVG Export Plug-In . SVG Version: 6.00 Build 0)  -->
<svg version="1.1" id="Layer_1" xmlns="http://www.w3.org/2000/svg" xmlns:xlink="http://www.w3.org/1999/xlink" x="0px" y="0px"
	 viewBox="0 0 336 13.9" style="enable-background:new 0 0 336 13.9;" xml:space="preserve">
<style type="text/css">
	.st0{fill:#FFD23F;}
</style>
<g>
	<polygon class="st0" points="98,-0.1 84,13.9 112,13.9 	"/>
	<polygon class="st0" points="14,-0.1 0,13.9 28,13.9 	"/>
	<polygon class="st0" points="70,-0.1 56,13.9 84,13.9 	"/>
	<polygon class="st0" points="126,-0.1 112,13.9 140,13.9 	"/>
	<polygon class="st0" points="42,-0.1 28,13.9 56,13.9 	"/>
	<polygon class="st0" points="154,-0.1 140,13.9 168,13.9 	"/>
	<polygon class="st0" points="266,-0.1 252,13.9 280,13.9 	"/>
	<polygon class="st0" points="294,-0.1 280,13.9 308,13.9 	"/>
	<polygon class="st0" points="322,-0.1 308,13.9 336,13.9 	"/>
	<polygon class="st0" points="210,-0.1 196,13.9 224,13.9 	"/>
	<polygon class="st0" points="182,-0.1 168,13.9 196,13.9 	"/>
	<polygon class="st0" points="238,-0.1 224,13.9 252,13.9 	"/>
</g>
</svg>
